<svg width="48" height="48" viewBox="0 0 48 48" fill="none" xmlns="http://www.w3.org/2000/svg">
<g clip-path="url(#clip0_581_7)">
<circle cx="24" cy="24" r="23.0662" stroke="#F8EA7F" stroke-width="1.86761"/>
<path fill-rule="evenodd" clip-rule="evenodd" d="M8.10603 13.2882C8.10603 13.3609 8.0471 13.4198 7.97441 13.4198H6.65814C6.29466 13.4198 6 13.7145 6 14.0779V35.599C6 35.9624 6.29466 36.2571 6.65814 36.2571H18.4388C19.8867 36.2571 22.0491 38.426 23.8355 38.3631C25.6218 38.3003 27.9159 36.2571 29.0347 36.2571H41.3381C41.703 36.2571 41.9983 35.9601 41.9962 35.5952L41.8721 14.0741C41.8701 13.7121 41.576 13.4198 41.214 13.4198H39.9598C39.8871 13.4198 39.8282 13.3609 39.8282 13.2882V10.5562C39.8282 10.3517 39.6698 10.1808 39.466 10.1631C33.0387 9.60384 29.5244 9.6685 24.1001 12.7784C23.978 12.8484 23.8241 12.8492 23.7015 12.7801C18.1742 9.66743 14.7171 9.20801 8.44304 10.1438C8.25036 10.1725 8.10603 10.3387 8.10603 10.5335V13.2882ZM9.81718 31.9134V11.5112C15.3775 11.0555 18.266 11.7364 23.0457 14.4728V34.5459C18.321 32.656 15.4359 32.055 9.81718 31.9134ZM24.7569 34.5459V14.4728C29.467 11.3478 32.4729 10.9441 38.1828 11.5112V31.9134C35.8199 31.9613 33.9261 32.0847 32.128 32.3735V26.6484C32.128 25.8586 35.0238 24.6081 35.0238 20.6593C35.0238 20.6593 35.1554 14.3412 31.4698 14.3412C27.7843 14.3412 27.7843 20.6593 27.7843 20.6593C27.7843 24.4107 30.6143 25.9244 30.6143 26.6484V32.6609C28.8045 33.0586 26.9843 33.6551 24.7569 34.5459Z" fill="#F8EA7F"/>
</g>
<defs>
<clipPath id="clip0_581_7">
<rect width="48" height="48" fill="white"/>
</clipPath>
</defs>
</svg>
