<svg width="815" height="238" viewBox="0 0 815 238" fill="none" xmlns="http://www.w3.org/2000/svg">
<circle cx="118.844" cy="118.844" r="112.344" stroke="black" stroke-width="13"/>
<path fill-rule="evenodd" clip-rule="evenodd" d="M43.5554 67.9266C43.5554 68.2702 43.2768 68.5488 42.9332 68.5488H36.711C34.9927 68.5488 33.5999 69.9417 33.5999 71.6599V173.393C33.5999 175.111 34.9927 176.504 36.711 176.504H92.3997C99.2442 176.504 109.466 186.757 117.911 186.46C126.355 186.163 137.2 176.504 142.489 176.504H200.648C202.373 176.504 203.769 175.1 203.759 173.375L203.173 71.642C203.163 69.9308 201.773 68.5488 200.062 68.5488H194.133C193.789 68.5488 193.511 68.2702 193.511 67.9266V55.0123C193.511 54.0455 192.762 53.2375 191.799 53.1537C161.416 50.5102 144.803 50.8158 119.162 65.5168C118.585 65.8477 117.857 65.8515 117.278 65.525C91.149 50.8108 74.807 48.639 45.1485 53.0625C44.2376 53.1983 43.5554 53.9839 43.5554 54.9048V67.9266ZM51.6443 155.971V59.5266C77.9288 57.3725 91.5831 60.5909 114.177 73.5266V168.415C91.8431 159.481 78.2049 156.64 51.6443 155.971ZM122.266 168.415V73.5266C144.532 58.7544 158.741 56.8457 185.733 59.5266V155.971C174.563 156.197 165.611 156.78 157.111 158.146V131.082C157.111 127.349 170.8 121.438 170.8 102.771C170.8 102.771 171.422 72.9045 154 72.9045C136.577 72.9045 136.577 102.771 136.577 102.771C136.577 120.504 149.955 127.66 149.955 131.082V159.504C141.4 161.384 132.796 164.204 122.266 168.415Z" fill="black"/>
<path d="M319.648 49.7386H306.898C306.534 47.6477 305.864 45.7955 304.886 44.1818C303.909 42.5455 302.693 41.1591 301.239 40.0227C299.784 38.8864 298.125 38.0341 296.261 37.4659C294.42 36.875 292.432 36.5795 290.295 36.5795C286.5 36.5795 283.136 37.5341 280.205 39.4432C277.273 41.3295 274.977 44.1023 273.318 47.7614C271.659 51.3977 270.83 55.8409 270.83 61.0909C270.83 66.4318 271.659 70.9318 273.318 74.5909C275 78.2273 277.295 80.9773 280.205 82.8409C283.136 84.6818 286.489 85.6023 290.261 85.6023C292.352 85.6023 294.307 85.3295 296.125 84.7841C297.966 84.2159 299.614 83.3864 301.068 82.2955C302.545 81.2045 303.784 79.8636 304.784 78.2727C305.807 76.6818 306.511 74.8636 306.898 72.8182L319.648 72.8864C319.17 76.2045 318.136 79.3182 316.545 82.2273C314.977 85.1364 312.92 87.7045 310.375 89.9318C307.83 92.1364 304.852 93.8636 301.443 95.1136C298.034 96.3409 294.25 96.9545 290.091 96.9545C283.955 96.9545 278.477 95.5341 273.659 92.6932C268.841 89.8523 265.045 85.75 262.273 80.3864C259.5 75.0227 258.114 68.5909 258.114 61.0909C258.114 53.5682 259.511 47.1364 262.307 41.7955C265.102 36.4318 268.909 32.3295 273.727 29.4886C278.545 26.6477 284 25.2273 290.091 25.2273C293.977 25.2273 297.591 25.7727 300.932 26.8636C304.273 27.9545 307.25 29.5568 309.864 31.6705C312.477 33.7614 314.625 36.3295 316.307 39.375C318.011 42.3977 319.125 45.8523 319.648 49.7386ZM393.616 61.0909C393.616 68.6136 392.207 75.0568 389.389 80.4205C386.594 85.7614 382.776 89.8523 377.935 92.6932C373.116 95.5341 367.651 96.9545 361.537 96.9545C355.423 96.9545 349.946 95.5341 345.105 92.6932C340.287 89.8295 336.469 85.7273 333.651 80.3864C330.855 75.0227 329.457 68.5909 329.457 61.0909C329.457 53.5682 330.855 47.1364 333.651 41.7955C336.469 36.4318 340.287 32.3295 345.105 29.4886C349.946 26.6477 355.423 25.2273 361.537 25.2273C367.651 25.2273 373.116 26.6477 377.935 29.4886C382.776 32.3295 386.594 36.4318 389.389 41.7955C392.207 47.1364 393.616 53.5682 393.616 61.0909ZM380.901 61.0909C380.901 55.7955 380.071 51.3295 378.412 47.6932C376.776 44.0341 374.503 41.2727 371.594 39.4091C368.685 37.5227 365.332 36.5795 361.537 36.5795C357.741 36.5795 354.389 37.5227 351.48 39.4091C348.571 41.2727 346.287 44.0341 344.628 47.6932C342.991 51.3295 342.173 55.7955 342.173 61.0909C342.173 66.3864 342.991 70.8636 344.628 74.5227C346.287 78.1591 348.571 80.9205 351.48 82.8068C354.389 84.6705 357.741 85.6023 361.537 85.6023C365.332 85.6023 368.685 84.6705 371.594 82.8068C374.503 80.9205 376.776 78.1591 378.412 74.5227C380.071 70.8636 380.901 66.3864 380.901 61.0909ZM467.96 61.0909C467.96 68.6136 466.551 75.0568 463.733 80.4205C460.938 85.7614 457.119 89.8523 452.278 92.6932C447.46 95.5341 441.994 96.9545 435.881 96.9545C429.767 96.9545 424.29 95.5341 419.449 92.6932C414.631 89.8295 410.813 85.7273 407.994 80.3864C405.199 75.0227 403.801 68.5909 403.801 61.0909C403.801 53.5682 405.199 47.1364 407.994 41.7955C410.813 36.4318 414.631 32.3295 419.449 29.4886C424.29 26.6477 429.767 25.2273 435.881 25.2273C441.994 25.2273 447.46 26.6477 452.278 29.4886C457.119 32.3295 460.938 36.4318 463.733 41.7955C466.551 47.1364 467.96 53.5682 467.96 61.0909ZM455.244 61.0909C455.244 55.7955 454.415 51.3295 452.756 47.6932C451.119 44.0341 448.847 41.2727 445.938 39.4091C443.028 37.5227 439.676 36.5795 435.881 36.5795C432.085 36.5795 428.733 37.5227 425.824 39.4091C422.915 41.2727 420.631 44.0341 418.972 47.6932C417.335 51.3295 416.517 55.7955 416.517 61.0909C416.517 66.3864 417.335 70.8636 418.972 74.5227C420.631 78.1591 422.915 80.9205 425.824 82.8068C428.733 84.6705 432.085 85.6023 435.881 85.6023C439.676 85.6023 443.028 84.6705 445.938 82.8068C448.847 80.9205 451.119 78.1591 452.756 74.5227C454.415 70.8636 455.244 66.3864 455.244 61.0909ZM479.918 96V26.1818H492.565V58.2614H493.418L520.656 26.1818H536.099L509.099 57.5114L536.338 96H521.134L500.304 66.0682L492.565 75.2045V96H479.918ZM544.886 96V26.1818H571.614C576.659 26.1818 580.852 26.9773 584.193 28.5682C587.557 30.1364 590.068 32.2841 591.727 35.0114C593.409 37.7386 594.25 40.8295 594.25 44.2841C594.25 47.125 593.705 49.5568 592.614 51.5795C591.523 53.5795 590.057 55.2045 588.216 56.4545C586.375 57.7045 584.318 58.6023 582.045 59.1477V59.8295C584.523 59.9659 586.898 60.7273 589.17 62.1136C591.466 63.4773 593.341 65.4091 594.795 67.9091C596.25 70.4091 596.977 73.4318 596.977 76.9773C596.977 80.5909 596.102 83.8409 594.352 86.7273C592.602 89.5909 589.966 91.8523 586.443 93.5114C582.92 95.1705 578.489 96 573.148 96H544.886ZM557.534 85.4318H571.136C575.727 85.4318 579.034 84.5568 581.057 82.8068C583.102 81.0341 584.125 78.7614 584.125 75.9886C584.125 73.9205 583.614 72.0568 582.591 70.3977C581.568 68.7159 580.114 67.3977 578.227 66.4432C576.341 65.4659 574.091 64.9773 571.477 64.9773H557.534V85.4318ZM557.534 55.875H570.045C572.227 55.875 574.193 55.4773 575.943 54.6818C577.693 53.8636 579.068 52.7159 580.068 51.2386C581.091 49.7386 581.602 47.9659 581.602 45.9205C581.602 43.2159 580.648 40.9886 578.739 39.2386C576.852 37.4886 574.045 36.6136 570.318 36.6136H557.534V55.875ZM670.366 61.0909C670.366 68.6136 668.957 75.0568 666.139 80.4205C663.344 85.7614 659.526 89.8523 654.685 92.6932C649.866 95.5341 644.401 96.9545 638.287 96.9545C632.173 96.9545 626.696 95.5341 621.855 92.6932C617.037 89.8295 613.219 85.7273 610.401 80.3864C607.605 75.0227 606.207 68.5909 606.207 61.0909C606.207 53.5682 607.605 47.1364 610.401 41.7955C613.219 36.4318 617.037 32.3295 621.855 29.4886C626.696 26.6477 632.173 25.2273 638.287 25.2273C644.401 25.2273 649.866 26.6477 654.685 29.4886C659.526 32.3295 663.344 36.4318 666.139 41.7955C668.957 47.1364 670.366 53.5682 670.366 61.0909ZM657.651 61.0909C657.651 55.7955 656.821 51.3295 655.162 47.6932C653.526 44.0341 651.253 41.2727 648.344 39.4091C645.435 37.5227 642.082 36.5795 638.287 36.5795C634.491 36.5795 631.139 37.5227 628.23 39.4091C625.321 41.2727 623.037 44.0341 621.378 47.6932C619.741 51.3295 618.923 55.7955 618.923 61.0909C618.923 66.3864 619.741 70.8636 621.378 74.5227C623.037 78.1591 625.321 80.9205 628.23 82.8068C631.139 84.6705 634.491 85.6023 638.287 85.6023C642.082 85.6023 645.435 84.6705 648.344 82.8068C651.253 80.9205 653.526 78.1591 655.162 74.5227C656.821 70.8636 657.651 66.3864 657.651 61.0909ZM744.71 61.0909C744.71 68.6136 743.301 75.0568 740.483 80.4205C737.688 85.7614 733.869 89.8523 729.028 92.6932C724.21 95.5341 718.744 96.9545 712.631 96.9545C706.517 96.9545 701.04 95.5341 696.199 92.6932C691.381 89.8295 687.563 85.7273 684.744 80.3864C681.949 75.0227 680.551 68.5909 680.551 61.0909C680.551 53.5682 681.949 47.1364 684.744 41.7955C687.563 36.4318 691.381 32.3295 696.199 29.4886C701.04 26.6477 706.517 25.2273 712.631 25.2273C718.744 25.2273 724.21 26.6477 729.028 29.4886C733.869 32.3295 737.688 36.4318 740.483 41.7955C743.301 47.1364 744.71 53.5682 744.71 61.0909ZM731.994 61.0909C731.994 55.7955 731.165 51.3295 729.506 47.6932C727.869 44.0341 725.597 41.2727 722.688 39.4091C719.778 37.5227 716.426 36.5795 712.631 36.5795C708.835 36.5795 705.483 37.5227 702.574 39.4091C699.665 41.2727 697.381 44.0341 695.722 47.6932C694.085 51.3295 693.267 55.7955 693.267 61.0909C693.267 66.3864 694.085 70.8636 695.722 74.5227C697.381 78.1591 699.665 80.9205 702.574 82.8068C705.483 84.6705 708.835 85.6023 712.631 85.6023C716.426 85.6023 719.778 84.6705 722.688 82.8068C725.597 80.9205 727.869 78.1591 729.506 74.5227C731.165 70.8636 731.994 66.3864 731.994 61.0909ZM756.668 96V26.1818H769.315V58.2614H770.168L797.406 26.1818H812.849L785.849 57.5114L813.088 96H797.884L777.054 66.0682L769.315 75.2045V96H756.668ZM319.648 165.739H306.898C306.534 163.648 305.864 161.795 304.886 160.182C303.909 158.545 302.693 157.159 301.239 156.023C299.784 154.886 298.125 154.034 296.261 153.466C294.42 152.875 292.432 152.58 290.295 152.58C286.5 152.58 283.136 153.534 280.205 155.443C277.273 157.33 274.977 160.102 273.318 163.761C271.659 167.398 270.83 171.841 270.83 177.091C270.83 182.432 271.659 186.932 273.318 190.591C275 194.227 277.295 196.977 280.205 198.841C283.136 200.682 286.489 201.602 290.261 201.602C292.352 201.602 294.307 201.33 296.125 200.784C297.966 200.216 299.614 199.386 301.068 198.295C302.545 197.205 303.784 195.864 304.784 194.273C305.807 192.682 306.511 190.864 306.898 188.818L319.648 188.886C319.17 192.205 318.136 195.318 316.545 198.227C314.977 201.136 312.92 203.705 310.375 205.932C307.83 208.136 304.852 209.864 301.443 211.114C298.034 212.341 294.25 212.955 290.091 212.955C283.955 212.955 278.477 211.534 273.659 208.693C268.841 205.852 265.045 201.75 262.273 196.386C259.5 191.023 258.114 184.591 258.114 177.091C258.114 169.568 259.511 163.136 262.307 157.795C265.102 152.432 268.909 148.33 273.727 145.489C278.545 142.648 284 141.227 290.091 141.227C293.977 141.227 297.591 141.773 300.932 142.864C304.273 143.955 307.25 145.557 309.864 147.67C312.477 149.761 314.625 152.33 316.307 155.375C318.011 158.398 319.125 161.852 319.648 165.739ZM343.878 142.182V212H331.23V142.182H343.878ZM357.574 212V142.182H383.756C389.119 142.182 393.619 143.114 397.256 144.977C400.915 146.841 403.676 149.455 405.54 152.818C407.426 156.159 408.369 160.057 408.369 164.511C408.369 168.989 407.415 172.875 405.506 176.17C403.619 179.443 400.835 181.977 397.153 183.773C393.472 185.545 388.949 186.432 383.585 186.432H364.938V175.932H381.881C385.017 175.932 387.585 175.5 389.585 174.636C391.585 173.75 393.063 172.466 394.017 170.784C394.994 169.08 395.483 166.989 395.483 164.511C395.483 162.034 394.994 159.92 394.017 158.17C393.04 156.398 391.551 155.057 389.551 154.148C387.551 153.216 384.972 152.75 381.812 152.75H370.222V212H357.574ZM393.642 180.364L410.926 212H396.812L379.835 180.364H393.642ZM479.773 165.739H467.023C466.659 163.648 465.989 161.795 465.011 160.182C464.034 158.545 462.818 157.159 461.364 156.023C459.909 154.886 458.25 154.034 456.386 153.466C454.545 152.875 452.557 152.58 450.42 152.58C446.625 152.58 443.261 153.534 440.33 155.443C437.398 157.33 435.102 160.102 433.443 163.761C431.784 167.398 430.955 171.841 430.955 177.091C430.955 182.432 431.784 186.932 433.443 190.591C435.125 194.227 437.42 196.977 440.33 198.841C443.261 200.682 446.614 201.602 450.386 201.602C452.477 201.602 454.432 201.33 456.25 200.784C458.091 200.216 459.739 199.386 461.193 198.295C462.67 197.205 463.909 195.864 464.909 194.273C465.932 192.682 466.636 190.864 467.023 188.818L479.773 188.886C479.295 192.205 478.261 195.318 476.67 198.227C475.102 201.136 473.045 203.705 470.5 205.932C467.955 208.136 464.977 209.864 461.568 211.114C458.159 212.341 454.375 212.955 450.216 212.955C444.08 212.955 438.602 211.534 433.784 208.693C428.966 205.852 425.17 201.75 422.398 196.386C419.625 191.023 418.239 184.591 418.239 177.091C418.239 169.568 419.636 163.136 422.432 157.795C425.227 152.432 429.034 148.33 433.852 145.489C438.67 142.648 444.125 141.227 450.216 141.227C454.102 141.227 457.716 141.773 461.057 142.864C464.398 143.955 467.375 145.557 469.989 147.67C472.602 149.761 474.75 152.33 476.432 155.375C478.136 158.398 479.25 161.852 479.773 165.739ZM491.355 212V142.182H504.003V201.398H534.753V212H491.355ZM545.73 212V142.182H591.139V152.784H558.378V171.739H588.787V182.341H558.378V201.398H591.412V212H545.73Z" fill="black"/>
</svg>
